HIERARCHY
ROOT Hips
{
	OFFSET 0.00000 0.00000 0.00000
	CHANNELS 6 Xposition Yposition Zposition Zrotation Yrotation Xrotation 
	JOINT LHipJoint
	{
		OFFSET 0 0 0
		CHANNELS 3 Zrotation Yrotation Xrotation
		JOINT LeftHip
		{
			OFFSET 1.62964 -1.40469 0.78906
			CHANNELS 3 Zrotation Yrotation Xrotation
			JOINT LeftKnee
			{
				OFFSET 2.29640 -6.30932 0.00000
				CHANNELS 3 Zrotation Yrotation Xrotation
				JOINT LeftAnkle
				{
					OFFSET 2.29451 -6.30412 0.00000
					CHANNELS 3 Zrotation Yrotation Xrotation
					JOINT LeftToe
					{
						OFFSET 0.03611 -0.09921 1.56387
						CHANNELS 3 Zrotation Yrotation Xrotation
						End Site
						{
							OFFSET 0.00000 -0.00000 0.80291
						}
					}
				}
			}
		}
	}
	JOINT RHipJoint
	{
		OFFSET 0 0 0
		CHANNELS 3 Zrotation Yrotation Xrotation
		JOINT RightHip
		{
			OFFSET -1.73712 -1.40469 0.78906
			CHANNELS 3 Zrotation Yrotation Xrotation
			JOINT RightKnee
			{
				OFFSET -2.28137 -6.26801 0.00000
				CHANNELS 3 Zrotation Yrotation Xrotation
				JOINT RightAnkle
				{
					OFFSET -2.28681 -6.28298 0.00000
					CHANNELS 3 Zrotation Yrotation Xrotation
					JOINT RightToe
					{
						OFFSET -0.15927 -0.43759 1.61103
						CHANNELS 3 Zrotation Yrotation Xrotation
						End Site
						{
							OFFSET -0.00000 -0.00000 0.84630
						}
					}
				}
			}
		}
	}
	JOINT lowerback
	{
		OFFSET 0 0 0
		CHANNELS 3 Zrotation Yrotation Xrotation
		JOINT Chest
		{
			OFFSET -0.04227 2.04338 -0.00225
			CHANNELS 3 Zrotation Yrotation Xrotation
			JOINT Chest2
			{
				OFFSET -0.02148 2.04482 -0.04273
				CHANNELS 3 Zrotation Yrotation Xrotation
				JOINT lowerneck
				{
					OFFSET 0 0 0
					CHANNELS 3 Zrotation Yrotation Xrotation
					JOINT Neck
					{
						OFFSET 0.09180 1.44629 0.19359
						CHANNELS 3 Zrotation Yrotation Xrotation
						JOINT Head
						{
							OFFSET 0.00887 1.40645 0.14750
							CHANNELS 3 Zrotation Yrotation Xrotation
							End Site
							{
								OFFSET -0.00669 1.50671 0.03707
							}
						}
					}
				}
				JOINT LeftCollar
				{
					OFFSET 0 0 0
					CHANNELS 3 Zrotation Yrotation Xrotation
					JOINT LeftShoulder
					{
						OFFSET 2.17674 1.86763 -0.06520
CHANNELS 3 Zrotation Xrotation Yrotation
						JOINT LeftElbow
						{
OFFSET 0 -4.657760 0.000000
CHANNELS 3 Zrotation Xrotation Yrotation
							JOINT LeftWrist
							{
OFFSET 0 -3.555390 0.000000
CHANNELS 3 Zrotation Xrotation Yrotation
								JOINT lhand
								{
									OFFSET 0 0 0
CHANNELS 3 Zrotation Xrotation Yrotation
									JOINT LFingers
									{
OFFSET 0 -0.707260 0.000000
CHANNELS 3 Zrotation Xrotation Yrotation
										End Site
										{
OFFSET 0 -0.570220 0.000000
										}
									}
								}
								JOINT LThumb
								{
OFFSET 0 0.000000 0.000000
CHANNELS 3 Zrotation Xrotation Yrotation
									End Site
									{
OFFSET 0 -0.578920 0.578920
									}
								}
							}
						}
					}
				}
				JOINT RightCollar
				{
					OFFSET 0 0 0
					CHANNELS 3 Zrotation Yrotation Xrotation
					JOINT RightShoulder
					{
						OFFSET -2.80694 1.55459 -0.32496
CHANNELS 3 Zrotation Xrotation Yrotation
						JOINT RightElbow
						{
OFFSET 0 -4.719250 -0.000000
CHANNELS 3 Zrotation Xrotation Yrotation
							JOINT RightWrist
							{
OFFSET 0 -3.569900 0.000000
CHANNELS 3 Zrotation Xrotation Yrotation
								JOINT rhand
								{
									OFFSET 0 0 0
CHANNELS 3 Zrotation Xrotation Yrotation
									JOINT RFingers
									{
OFFSET 0 -0.507760 0.000000
CHANNELS 3 Zrotation Xrotation Yrotation
										End Site
										{
OFFSET 0 -0.409370 0.000000
										}
									}
								}
								JOINT RThumb
								{
OFFSET 0 0.000000 0.000000
CHANNELS 3 Zrotation Xrotation Yrotation
									End Site
									{
OFFSET 0 -0.415620 0.415620
									}
								}
							}
						}
					}
				}
			}
		}
	}
}
MOTION
Frames: 4
Frame Time: 0.008333333333333333
-1.366022 18.009400 21.454693 177.409237 0.731651 -153.294529 0.000000 0.000000 0.000000 -20.783098 -17.406049 -24.068984 0.315462 3.610495 9.983278 0.001092 -6.525918 -4.598750 2.229234 -9.328144 -26.827272 0.000000 0.000000 0.000000 11.647968 22.372198 -31.840157 -1.640216 -8.072576 22.934796 -1.830319 -0.424299 -25.758548 -1.307114 7.242246 -20.434970 -7.769733 -2.143194 -21.718388 -0.313708 -0.606020 1.308044 3.901967 -0.777057 13.883304 1.134295 -2.942823 -4.149014 -0.766186 -1.885844 25.776844 -0.493243 -0.064169 8.665821 0.000000 0.000000 0.000000 8.260760 2.176066 -23.013889 18.740763 -29.095304 4.904120 24.091309 -5.970742 12.992794 0.000000 0.000000 0.000000 -7.125000 0.000000 0.000000 -2.219641 15.802354 -1.532372 0.000000 0.000000 0.000000 1.337501 8.875372 9.867082 -21.882768 -32.844088 -6.522189 -15.708290 10.093546 55.073408 0.000000 0.000000 0.000000 7.125000 0.000000 0.000000 74.554178 77.595368 -61.985166
-1.377559 18.011799 21.435503 177.287990 0.485400 -153.471132 0.000000 0.000000 0.000000 -20.987758 -17.414636 -23.717088 0.307609 3.565763 9.858119 -0.004580 -6.711147 -4.587863 2.230849 -9.331244 -26.837026 0.000000 0.000000 0.000000 11.684424 22.386119 -31.585780 -1.719054 -8.254552 23.490054 -1.836801 -0.700552 -25.900950 -1.412834 7.517587 -21.258199 -7.907256 -2.074166 -21.785191 -0.320866 -0.778801 1.318470 3.882922 -0.994451 13.942671 1.258358 -2.994231 -4.395681 -1.119910 -1.848155 26.152939 -0.632254 -0.051859 8.836048 0.000000 0.000000 0.000000 8.271562 1.811039 -22.124776 18.563123 -28.872187 4.818103 23.822022 -5.042599 13.515201 0.000000 0.000000 0.000000 -7.125000 0.000000 0.000000 -2.436339 15.267146 -1.709663 0.000000 0.000000 0.000000 1.442320 8.748291 10.006150 -21.244287 -32.112181 -6.179378 -15.541699 10.524808 54.157029 0.000000 0.000000 0.000000 7.125000 0.000000 0.000000 70.437222 77.384198 -57.851221
-1.390658 18.013631 21.418505 177.384088 0.221416 -153.547760 0.000000 0.000000 0.000000 -20.967930 -17.149304 -23.603481 0.299070 3.516138 9.719258 -0.024466 -7.096030 -4.371866 2.167487 -9.206466 -26.443368 0.000000 0.000000 0.000000 12.001673 22.150206 -31.255125 -1.716024 -8.247449 23.468227 -1.800992 -0.413930 -25.547526 -1.254143 7.099737 -20.011155 -7.712291 -2.093003 -22.066611 -0.294534 -0.831279 1.334093 3.781442 -1.011604 14.127364 1.330080 -3.093821 -4.332892 -1.252518 -1.940889 26.241795 -0.696128 -0.092104 8.851033 0.000000 0.000000 0.000000 8.297551 1.459211 -21.552774 18.379474 -28.640291 4.729748 24.570808 -4.862762 13.594814 0.000000 0.000000 0.000000 -7.125000 0.000000 0.000000 -1.929042 15.094130 -1.359632 0.000000 0.000000 0.000000 1.714697 8.765124 9.877377 -20.854793 -31.658417 -5.973555 -16.606889 12.406341 54.090538 0.000000 0.000000 0.000000 7.125000 0.000000 0.000000 69.941044 77.781386 -57.817257
-1.415006 17.983715 21.352359 177.361080 -0.217144 -153.394806 0.000000 0.000000 0.000000 -21.302201 -17.390969 -23.004635 0.266092 3.315568 9.158818 -0.035131 -7.220275 -4.197508 2.186732 -9.243168 -26.560229 0.000000 0.000000 0.000000 12.425386 21.214847 -30.502771 -1.531666 -7.810958 22.142714 -1.684370 0.325050 -24.464009 -0.924010 6.110345 -17.109226 -7.399102 -2.187412 -23.127271 -0.286324 -0.959426 1.335444 3.555073 -1.069630 14.752050 1.369086 -3.233001 -4.463301 -1.435010 -2.075690 26.446901 -0.777534 -0.159272 8.941557 0.000000 0.000000 0.000000 8.234011 1.366336 -20.980207 18.346943 -28.599108 4.714157 23.606014 -4.139632 12.944337 0.000000 0.000000 0.000000 -7.125000 0.000000 0.000000 -2.551342 15.907842 -1.756123 0.000000 0.000000 0.000000 1.803739 8.940089 9.927197 -20.539944 -31.287292 -5.809233 -15.753936 12.138835 54.516756 0.000000 0.000000 0.000000 7.125000 0.000000 0.000000 72.016739 77.532554 -59.500147
